<svg xmlns="http://www.w3.org/2000/svg" xmlns:xlink="http://www.w3.org/1999/xlink" zoomAndPan="magnify" viewBox="376 378 820 820" preserveAspectRatio="xMidYMid meet" version="1.0"><defs><g/><clipPath id="a42d443d59"><path d="M 490 493 L 930 493 L 930 1009 L 490 1009 Z M 490 493 " clip-rule="nonzero"/></clipPath><clipPath id="77ae13efff"><path d="M 358.074219 752.695312 L 735.667969 375.101562 L 1111.671875 751.105469 L 734.078125 1128.699219 Z M 358.074219 752.695312 " clip-rule="nonzero"/></clipPath><clipPath id="72d7728da3"><path d="M 358.074219 752.695312 L 735.667969 375.101562 L 1111.671875 751.105469 L 734.078125 1128.699219 Z M 358.074219 752.695312 " clip-rule="nonzero"/></clipPath><clipPath id="deb1da8d32"><path d="M 358.074219 752.695312 L 735.667969 375.101562 L 1111.671875 751.105469 L 734.078125 1128.699219 Z M 358.074219 752.695312 " clip-rule="nonzero"/></clipPath><clipPath id="e7c3549d05"><rect x="0" width="604" y="0" height="748"/></clipPath></defs><path fill="#241018" d="M 749.648438 1050 C 584.796875 1050 450.175781 915.027344 450.175781 749.824219 C 450.175781 584.621094 584.796875 450 749.648438 450 C 915.203125 450 1049.472656 584.621094 1049.472656 749.824219 C 1049.824219 915.027344 915.203125 1050 749.648438 1050 Z M 749.648438 471.089844 C 596.046875 471.089844 470.914062 595.871094 470.914062 749.824219 C 470.914062 903.425781 596.046875 1028.558594 749.648438 1028.558594 C 903.601562 1028.558594 1028.382812 903.425781 1028.382812 749.824219 C 1029.085938 595.871094 903.601562 471.089844 749.648438 471.089844 Z M 749.648438 471.089844 " fill-opacity="1" fill-rule="evenodd"/><g clip-path="url(#a42d443d59)"><g clip-path="url(#77ae13efff)"><g clip-path="url(#72d7728da3)"><g clip-path="url(#deb1da8d32)"><path fill="#241018" d="M 929.515625 933.078125 C 926.914062 935.675781 924.261719 938.21875 921.550781 940.703125 C 918.839844 943.1875 916.082031 945.613281 913.265625 947.976562 C 910.453125 950.34375 907.589844 952.648438 904.679688 954.890625 C 901.765625 957.132812 898.808594 959.316406 895.804688 961.429688 C 892.796875 963.546875 889.75 965.597656 886.65625 967.585938 C 883.5625 969.570312 880.429688 971.492188 877.253906 973.34375 C 874.078125 975.195312 870.863281 976.976562 867.613281 978.691406 C 864.363281 980.40625 861.074219 982.050781 857.753906 983.625 C 854.429688 985.199219 851.078125 986.699219 847.691406 988.128906 C 844.304688 989.558594 840.890625 990.914062 837.445312 992.199219 C 834 993.484375 830.53125 994.691406 827.035156 995.828125 C 823.539062 996.960938 820.019531 998.023438 816.480469 999.007812 C 812.9375 999.992188 809.378906 1000.898438 805.796875 1001.730469 C 802.21875 1002.5625 798.621094 1003.316406 795.007812 1003.996094 C 791.394531 1004.671875 787.769531 1005.273438 784.132812 1005.796875 C 780.496094 1006.320312 776.847656 1006.761719 773.191406 1007.128906 C 769.53125 1007.496094 765.871094 1007.785156 762.199219 1007.992188 C 758.53125 1008.203125 754.859375 1008.335938 751.183594 1008.386719 C 747.507812 1008.4375 743.835938 1008.414062 740.160156 1008.308594 C 736.488281 1008.203125 732.816406 1008.019531 729.152344 1007.753906 C 725.484375 1007.492188 721.828125 1007.152344 718.175781 1006.734375 C 714.527344 1006.316406 710.886719 1005.816406 707.253906 1005.242188 C 703.625 1004.667969 700.007812 1004.015625 696.40625 1003.285156 C 692.804688 1002.554688 689.222656 1001.75 685.65625 1000.867188 C 682.085938 999.980469 678.539062 999.023438 675.015625 997.988281 C 671.488281 996.953125 667.988281 995.84375 664.507812 994.65625 C 661.03125 993.472656 657.578125 992.210938 654.152344 990.878906 C 650.730469 989.546875 647.335938 988.140625 643.972656 986.660156 C 640.605469 985.183594 637.277344 983.632812 633.976562 982.011719 C 630.679688 980.390625 627.417969 978.699219 624.195312 976.9375 C 620.96875 975.175781 617.78125 973.347656 614.636719 971.449219 C 611.488281 969.554688 608.382812 967.589844 605.320312 965.558594 C 602.257812 963.527344 599.242188 961.433594 596.269531 959.273438 C 593.296875 957.113281 590.371094 954.890625 587.492188 952.605469 C 584.617188 950.320312 581.789062 947.976562 579.011719 945.570312 C 576.234375 943.164062 573.507812 940.699219 570.835938 938.175781 C 568.167969 935.652344 565.550781 933.074219 562.988281 930.4375 C 560.429688 927.804688 557.925781 925.113281 555.480469 922.371094 C 553.03125 919.628906 550.648438 916.835938 548.320312 913.992188 C 545.996094 911.148438 543.730469 908.253906 541.527344 905.3125 C 539.328125 902.371094 537.1875 899.382812 535.113281 896.351562 C 533.039062 893.316406 531.03125 890.242188 529.089844 887.121094 C 527.148438 884.003906 525.273438 880.84375 523.464844 877.644531 C 521.65625 874.445312 519.917969 871.207031 518.25 867.933594 C 516.582031 864.660156 514.984375 861.351562 513.457031 858.007812 C 511.933594 854.664062 510.476562 851.292969 509.09375 847.886719 C 507.714844 844.480469 506.40625 841.050781 505.167969 837.589844 C 503.933594 834.128906 502.773438 830.640625 501.6875 827.128906 C 500.601562 823.621094 499.59375 820.085938 498.660156 816.53125 C 497.722656 812.980469 496.867188 809.40625 496.085938 805.816406 C 495.304688 802.226562 494.597656 798.617188 493.972656 794.996094 C 493.34375 791.375 492.796875 787.742188 492.324219 784.097656 C 491.851562 780.453125 491.460938 776.800781 491.144531 773.140625 C 490.828125 769.476562 490.59375 765.8125 490.4375 762.140625 C 490.277344 758.46875 490.199219 754.792969 490.199219 751.117188 C 490.199219 747.445312 490.277344 743.769531 490.433594 740.097656 C 490.589844 736.425781 490.824219 732.757812 491.140625 729.097656 C 491.453125 725.433594 491.84375 721.78125 492.316406 718.136719 C 492.785156 714.492188 493.335938 710.859375 493.960938 707.234375 C 494.585938 703.613281 495.289062 700.007812 496.070312 696.417969 C 496.851562 692.824219 497.707031 689.25 498.640625 685.695312 C 499.574219 682.140625 500.582031 678.609375 501.667969 675.09375 C 502.753906 671.582031 503.914062 668.097656 505.148438 664.632812 C 506.378906 661.171875 507.6875 657.738281 509.070312 654.332031 C 511.054688 649.433594 513.191406 644.597656 515.476562 639.832031 C 517.761719 635.0625 520.191406 630.371094 522.765625 625.753906 C 525.339844 621.132812 528.054688 616.601562 530.90625 612.148438 C 533.757812 607.699219 536.746094 603.339844 539.871094 599.070312 C 542.992188 594.804688 546.242188 590.636719 549.621094 586.570312 C 553 582.503906 556.5 578.546875 560.121094 574.695312 C 563.746094 570.84375 567.484375 567.109375 571.335938 563.488281 C 575.1875 559.867188 579.148438 556.367188 583.21875 552.992188 C 587.285156 549.613281 591.453125 546.367188 595.722656 543.246094 C 599.992188 540.128906 604.351562 537.140625 608.804688 534.289062 C 613.257812 531.441406 617.792969 528.726562 622.414062 526.15625 C 627.03125 523.585938 631.726562 521.160156 636.496094 518.875 C 641.265625 516.59375 646.097656 514.460938 651 512.476562 C 655.898438 510.492188 660.855469 508.660156 665.867188 506.980469 C 670.882812 505.300781 675.941406 503.78125 681.046875 502.414062 C 686.15625 501.046875 691.300781 499.835938 696.480469 498.789062 C 701.660156 497.738281 706.871094 496.847656 712.105469 496.117188 C 717.34375 495.390625 722.59375 494.824219 727.867188 494.417969 C 733.136719 494.011719 738.414062 493.769531 743.699219 493.691406 C 748.988281 493.609375 754.269531 493.691406 759.550781 493.9375 C 764.828125 494.183594 770.097656 494.59375 775.351562 495.164062 C 780.609375 495.734375 785.839844 496.464844 791.050781 497.359375 C 796.261719 498.25 801.4375 499.304688 806.582031 500.515625 C 811.726562 501.726562 816.828125 503.097656 821.890625 504.625 C 826.949219 506.152344 831.957031 507.832031 836.914062 509.667969 C 841.871094 511.503906 846.765625 513.488281 851.601562 515.625 C 856.433594 517.761719 861.199219 520.046875 865.890625 522.476562 C 870.585938 524.910156 875.199219 527.480469 879.734375 530.199219 C 884.269531 532.914062 888.714844 535.765625 893.074219 538.753906 C 897.429688 541.742188 901.695312 544.863281 905.859375 548.117188 C 910.027344 551.371094 914.085938 554.746094 918.046875 558.25 C 922.003906 561.753906 925.851562 565.375 929.585938 569.113281 L 928.140625 570.554688 C 925.5625 567.980469 922.929688 565.460938 920.242188 562.996094 C 917.554688 560.535156 914.816406 558.128906 912.027344 555.785156 C 909.234375 553.4375 906.394531 551.152344 903.507812 548.929688 C 900.621094 546.707031 897.6875 544.542969 894.703125 542.445312 C 891.722656 540.347656 888.699219 538.3125 885.632812 536.34375 C 882.5625 534.375 879.457031 532.472656 876.304688 530.636719 C 873.15625 528.804688 869.96875 527.035156 866.746094 525.335938 C 863.519531 523.636719 860.257812 522.007812 856.964844 520.449219 C 853.667969 518.890625 850.34375 517.402344 846.984375 515.984375 C 843.625 514.566406 840.238281 513.222656 836.820312 511.949219 C 833.40625 510.679688 829.960938 509.480469 826.496094 508.355469 C 823.027344 507.230469 819.535156 506.183594 816.023438 505.207031 C 812.511719 504.230469 808.980469 503.332031 805.429688 502.507812 C 801.875 501.683594 798.308594 500.9375 794.726562 500.265625 C 791.144531 499.597656 787.546875 499.003906 783.9375 498.484375 C 780.328125 497.96875 776.710938 497.53125 773.082031 497.167969 C 769.453125 496.804688 765.820312 496.523438 762.179688 496.316406 C 758.542969 496.109375 754.898438 495.980469 751.253906 495.929688 C 747.605469 495.878906 743.960938 495.910156 740.316406 496.015625 C 736.671875 496.121094 733.03125 496.304688 729.394531 496.566406 C 725.761719 496.828125 722.128906 497.167969 718.507812 497.585938 C 714.886719 498 711.273438 498.496094 707.675781 499.066406 C 704.074219 499.640625 700.484375 500.289062 696.914062 501.011719 C 693.339844 501.738281 689.785156 502.539062 686.246094 503.417969 C 682.707031 504.296875 679.1875 505.25 675.6875 506.277344 C 672.191406 507.304688 668.714844 508.410156 665.265625 509.585938 C 661.8125 510.761719 658.390625 512.015625 654.992188 513.339844 C 651.59375 514.660156 648.226562 516.058594 644.890625 517.527344 C 641.550781 518.992188 638.246094 520.53125 634.972656 522.140625 C 631.703125 523.753906 628.464844 525.429688 625.265625 527.179688 C 622.066406 528.925781 618.90625 530.742188 615.78125 532.625 C 612.660156 534.511719 609.578125 536.460938 606.539062 538.476562 C 603.5 540.492188 600.507812 542.570312 597.558594 544.714844 C 594.605469 546.855469 591.703125 549.0625 588.847656 551.332031 C 585.992188 553.597656 583.1875 555.925781 580.433594 558.316406 C 577.675781 560.703125 574.972656 563.148438 572.320312 565.652344 C 569.671875 568.15625 567.074219 570.714844 564.53125 573.332031 C 561.992188 575.945312 559.507812 578.613281 557.078125 581.335938 C 554.652344 584.054688 552.285156 586.828125 549.976562 589.652344 C 547.664062 592.472656 545.417969 595.34375 543.234375 598.261719 C 541.046875 601.179688 538.925781 604.144531 536.867188 607.15625 C 534.808594 610.164062 532.8125 613.21875 530.886719 616.3125 C 528.957031 619.40625 527.097656 622.542969 525.300781 625.71875 C 523.507812 628.890625 521.785156 632.101562 520.125 635.351562 C 518.46875 638.601562 516.882812 641.882812 515.367188 645.199219 C 513.851562 648.515625 512.410156 651.863281 511.035156 655.242188 C 509.664062 658.621094 508.363281 662.023438 507.136719 665.460938 C 505.910156 668.894531 504.757812 672.351562 503.679688 675.835938 C 502.601562 679.316406 501.597656 682.820312 500.667969 686.347656 C 499.738281 689.875 498.886719 693.417969 498.109375 696.980469 C 497.332031 700.542969 496.632812 704.121094 496.011719 707.714844 C 495.386719 711.304688 494.839844 714.910156 494.371094 718.527344 C 493.902344 722.140625 493.511719 725.765625 493.195312 729.398438 C 492.882812 733.03125 492.644531 736.667969 492.488281 740.308594 C 492.328125 743.953125 492.25 747.597656 492.246094 751.242188 C 492.246094 754.890625 492.320312 758.53125 492.476562 762.175781 C 492.628906 765.816406 492.859375 769.457031 493.171875 773.089844 C 493.480469 776.722656 493.867188 780.34375 494.332031 783.960938 C 494.796875 787.578125 495.339844 791.179688 495.960938 794.773438 C 496.578125 798.367188 497.273438 801.945312 498.046875 805.507812 C 498.820312 809.070312 499.667969 812.613281 500.59375 816.140625 C 501.515625 819.667969 502.515625 823.171875 503.589844 826.65625 C 504.664062 830.140625 505.8125 833.597656 507.035156 837.03125 C 508.257812 840.46875 509.554688 843.875 510.921875 847.253906 C 512.894531 852.113281 515.007812 856.90625 517.273438 861.636719 C 519.539062 866.363281 521.949219 871.019531 524.5 875.601562 C 527.050781 880.179688 529.742188 884.679688 532.570312 889.09375 C 535.402344 893.507812 538.363281 897.832031 541.457031 902.0625 C 544.554688 906.292969 547.777344 910.425781 551.128906 914.460938 C 554.476562 918.492188 557.949219 922.417969 561.542969 926.238281 C 565.136719 930.058594 568.84375 933.761719 572.664062 937.351562 C 576.484375 940.945312 580.410156 944.414062 584.445312 947.761719 C 588.480469 951.109375 592.617188 954.332031 596.847656 957.425781 C 601.082031 960.519531 605.40625 963.476562 609.824219 966.304688 C 614.238281 969.132812 618.738281 971.820312 623.320312 974.367188 C 627.902344 976.917969 632.558594 979.324219 637.289062 981.585938 C 642.019531 983.847656 646.816406 985.964844 651.675781 987.929688 C 656.535156 989.898438 661.453125 991.710938 666.425781 993.375 C 671.398438 995.039062 676.417969 996.550781 681.484375 997.902344 C 686.550781 999.257812 691.652344 1000.453125 696.792969 1001.492188 C 701.933594 1002.535156 707.097656 1003.414062 712.292969 1004.136719 C 717.488281 1004.855469 722.699219 1005.417969 727.929688 1005.816406 C 733.15625 1006.21875 738.394531 1006.457031 743.636719 1006.53125 C 748.878906 1006.609375 754.121094 1006.527344 759.359375 1006.28125 C 764.597656 1006.035156 769.824219 1005.628906 775.039062 1005.058594 C 780.253906 1004.492188 785.441406 1003.765625 790.613281 1002.875 C 795.78125 1001.988281 800.917969 1000.941406 806.023438 999.738281 C 811.125 998.53125 816.1875 997.171875 821.210938 995.65625 C 826.230469 994.140625 831.199219 992.46875 836.117188 990.648438 C 841.035156 988.824219 845.894531 986.851562 850.691406 984.730469 C 855.488281 982.609375 860.214844 980.339844 864.871094 977.925781 C 869.527344 975.511719 874.105469 972.957031 878.605469 970.261719 C 883.105469 967.566406 887.515625 964.734375 891.839844 961.769531 C 896.167969 958.800781 900.394531 955.703125 904.53125 952.476562 C 908.664062 949.246094 912.695312 945.894531 916.625 942.417969 C 920.550781 938.941406 924.367188 935.347656 928.074219 931.636719 Z M 929.515625 933.078125 " fill-opacity="1" fill-rule="nonzero"/></g></g></g></g><g transform="matrix(1, 0, 0, 1, 519, 414)"><g clip-path="url(#e7c3549d05)"><g fill="#241018" fill-opacity="1"><g transform="translate(2.76694, 417.116409)"><g><path d="M 358.3125 327.859375 C 357.113281 328.453125 355.921875 328.75 354.734375 328.75 C 352.046875 328.75 349.359375 327.703125 346.671875 325.609375 C 341.296875 321.734375 338.382812 317.554688 337.9375 313.078125 C 337.488281 308.597656 337.5625 304.269531 338.15625 300.09375 L 338.15625 297.84375 C 340.84375 276.34375 344.796875 255.441406 350.015625 235.140625 C 355.242188 214.835938 360.695312 194.832031 366.375 175.125 L 367.265625 171.546875 C 372.347656 153.921875 379.441406 132.566406 388.546875 107.484375 C 397.648438 82.410156 407.945312 55.238281 419.4375 25.96875 C 430.9375 -3.289062 442.882812 -33.144531 455.28125 -63.59375 C 467.675781 -94.050781 479.914062 -123.757812 492 -152.71875 C 504.09375 -181.6875 515.140625 -208.335938 525.140625 -232.671875 C 535.148438 -257.015625 543.289062 -277.394531 549.5625 -293.8125 L 564.796875 -331.890625 L 568.375 -341.734375 C 569.863281 -345.316406 571.351562 -348.972656 572.84375 -352.703125 C 574.34375 -356.441406 575.691406 -360.253906 576.890625 -364.140625 C 579.566406 -372.492188 581.503906 -380.554688 582.703125 -388.328125 C 582.703125 -389.515625 582.703125 -391.300781 582.703125 -393.6875 C 582.703125 -396.082031 581.507812 -397.878906 579.125 -399.078125 C 578.226562 -399.367188 577.179688 -399.515625 575.984375 -399.515625 C 573.296875 -399.515625 570.679688 -398.691406 568.140625 -397.046875 C 565.609375 -395.410156 563.296875 -393.847656 561.203125 -392.359375 C 559.710938 -391.160156 558.671875 -390.410156 558.078125 -390.109375 C 552.703125 -386.523438 547.398438 -382.71875 542.171875 -378.6875 C 536.941406 -374.65625 531.789062 -370.550781 526.71875 -366.375 L 523.140625 -363.234375 C 515.367188 -356.367188 507.828125 -349.203125 500.515625 -341.734375 C 493.203125 -334.273438 486.113281 -326.8125 479.25 -319.34375 L 477.90625 -318.453125 C 473.125 -313.078125 466.398438 -305.6875 457.734375 -296.28125 C 449.078125 -286.875 439.222656 -276.269531 428.171875 -264.46875 C 417.128906 -252.675781 405.785156 -240.4375 394.140625 -227.75 C 382.492188 -215.0625 371.296875 -202.816406 360.546875 -191.015625 C 349.796875 -179.222656 340.09375 -168.625 331.4375 -159.21875 C 322.78125 -149.8125 316.210938 -142.570312 311.734375 -137.5 C 301.878906 -126.457031 292.023438 -115.410156 282.171875 -104.359375 C 272.316406 -93.304688 262.460938 -82.257812 252.609375 -71.21875 C 249.023438 -67.332031 245.140625 -63.597656 240.953125 -60.015625 C 236.773438 -56.429688 232.75 -53 228.875 -49.71875 C 225.289062 -47.03125 222.15625 -44.640625 219.46875 -42.546875 C 215.882812 -39.265625 212.148438 -37.625 208.265625 -37.625 C 205.878906 -37.625 203.34375 -38.367188 200.65625 -39.859375 C 194.082031 -44.035156 191.242188 -51.203125 192.140625 -61.359375 C 193.335938 -70.015625 194.609375 -78.75 195.953125 -87.5625 C 197.296875 -96.375 198.710938 -104.957031 200.203125 -113.3125 L 202 -121.828125 C 202.59375 -126.304688 203.335938 -130.632812 204.234375 -134.8125 C 205.128906 -138.988281 206.023438 -143.316406 206.921875 -147.796875 C 209.015625 -159.148438 211.101562 -170.722656 213.1875 -182.515625 C 215.28125 -194.304688 216.628906 -206.328125 217.234375 -218.578125 C 217.523438 -225.441406 217.078125 -231.859375 215.890625 -237.828125 C 215.285156 -239.921875 214.757812 -241.785156 214.3125 -243.421875 C 213.863281 -245.066406 213.34375 -246.785156 212.75 -248.578125 C 211.257812 -251.265625 209.171875 -252.609375 206.484375 -252.609375 C 203.492188 -252.609375 200.351562 -251.265625 197.0625 -248.578125 C 193.78125 -245.890625 190.570312 -242.898438 187.4375 -239.609375 C 184.300781 -236.328125 181.988281 -233.644531 180.5 -231.5625 C 160.195312 -206.476562 142.351562 -179.53125 126.96875 -150.71875 C 111.59375 -121.90625 97.039062 -93.015625 83.3125 -64.046875 C 82.113281 -61.660156 80.242188 -57.925781 77.703125 -52.84375 C 75.171875 -47.769531 72.5625 -42.546875 69.875 -37.171875 C 67.1875 -31.796875 64.945312 -27.164062 63.15625 -23.28125 C 61.363281 -19.40625 60.46875 -17.46875 60.46875 -17.46875 C 56.582031 -9.707031 52.773438 -2.019531 49.046875 5.59375 C 45.316406 13.207031 41.507812 20.898438 37.625 28.671875 C 37.03125 29.265625 36.65625 29.859375 36.5 30.453125 C 36.351562 31.054688 36.128906 31.65625 35.828125 32.25 C 34.929688 34.039062 34.035156 35.832031 33.140625 37.625 C 32.242188 39.414062 31.050781 40.757812 29.5625 41.65625 C 28.664062 42.25 27.769531 42.546875 26.875 42.546875 C 25.082031 42.546875 23.585938 41.351562 22.390625 38.96875 C 21.492188 37.175781 21.269531 35.234375 21.71875 33.140625 C 22.164062 31.054688 22.835938 29.117188 23.734375 27.328125 C 24.335938 26.128906 24.785156 25.234375 25.078125 24.640625 C 34.035156 -1.335938 44.1875 -28.285156 55.53125 -56.203125 C 66.882812 -84.128906 79.875 -111.972656 94.5 -139.734375 C 109.132812 -167.503906 126.003906 -194.378906 145.109375 -220.359375 C 157.953125 -237.972656 170.796875 -251.257812 183.640625 -260.21875 C 190.203125 -264.40625 196.171875 -266.5 201.546875 -266.5 C 205.734375 -266.5 209.765625 -265.453125 213.640625 -263.359375 C 219.617188 -260.078125 223.203125 -255.820312 224.390625 -250.59375 C 225.585938 -245.363281 226.1875 -239.765625 226.1875 -233.796875 C 226.1875 -222.453125 225.515625 -211.550781 224.171875 -201.09375 C 222.828125 -190.644531 221.554688 -180.941406 220.359375 -171.984375 C 218.566406 -162.429688 216.773438 -152.953125 214.984375 -143.546875 C 213.191406 -134.140625 211.398438 -124.660156 209.609375 -115.109375 C 208.421875 -110.035156 207.300781 -105.035156 206.25 -100.109375 C 205.207031 -95.179688 204.238281 -90.175781 203.34375 -85.09375 L 202.890625 -82.859375 C 202.597656 -80.472656 202.226562 -78.082031 201.78125 -75.6875 C 201.332031 -73.300781 201.109375 -70.914062 201.109375 -68.53125 C 200.804688 -64.644531 200.726562 -61.054688 200.875 -57.765625 C 201.03125 -54.484375 202.148438 -52.097656 204.234375 -50.609375 L 204.6875 -50.15625 L 206.921875 -49.265625 C 208.710938 -49.265625 210.578125 -49.9375 212.515625 -51.28125 C 214.460938 -52.625 216.332031 -54.039062 218.125 -55.53125 L 219.46875 -56.875 C 227.53125 -62.851562 235.738281 -70.320312 244.09375 -79.28125 C 248.875 -84.65625 253.503906 -90.03125 257.984375 -95.40625 C 262.460938 -100.78125 266.789062 -106.300781 270.96875 -111.96875 C 273.65625 -114.957031 276.191406 -118.019531 278.578125 -121.15625 C 280.972656 -124.289062 283.515625 -127.351562 286.203125 -130.34375 C 294.859375 -140.789062 305.457031 -153.179688 318 -167.515625 C 330.539062 -181.847656 344.125 -197.148438 358.75 -213.421875 C 373.382812 -229.691406 388.460938 -246.1875 403.984375 -262.90625 C 419.515625 -279.632812 434.742188 -295.757812 449.671875 -311.28125 C 464.609375 -326.8125 478.644531 -340.992188 491.78125 -353.828125 C 504.914062 -366.671875 516.265625 -377.125 525.828125 -385.1875 C 532.097656 -390.5625 538.59375 -395.710938 545.3125 -400.640625 C 552.03125 -405.566406 559.421875 -409.671875 567.484375 -412.953125 C 571.066406 -414.441406 574.203125 -415.1875 576.890625 -415.1875 C 581.359375 -415.1875 585.535156 -413.546875 589.421875 -410.265625 C 596.285156 -404.890625 599.421875 -397.578125 598.828125 -388.328125 C 598.234375 -379.367188 596.816406 -371.003906 594.578125 -363.234375 C 592.335938 -355.472656 590.019531 -348.457031 587.625 -342.1875 C 580.757812 -323.375 573.59375 -304.632812 566.125 -285.96875 C 558.664062 -267.3125 551.351562 -248.875 544.1875 -230.65625 C 539.707031 -219.613281 533.507812 -204.832031 525.59375 -186.3125 C 517.6875 -167.800781 508.726562 -146.972656 498.71875 -123.828125 C 488.71875 -100.691406 478.492188 -76.734375 468.046875 -51.953125 C 457.597656 -27.171875 447.519531 -3.058594 437.8125 20.375 C 428.101562 43.8125 419.59375 65.007812 412.28125 83.96875 C 404.96875 102.9375 399.519531 118.242188 395.9375 129.890625 L 389.671875 149.59375 C 382.796875 172.882812 376 196.472656 369.28125 220.359375 C 362.5625 244.242188 357.410156 268.726562 353.828125 293.8125 C 353.535156 294.707031 353.3125 295.53125 353.15625 296.28125 C 353.007812 297.03125 352.785156 297.851562 352.484375 298.75 C 351.585938 302.03125 351.210938 305.6875 351.359375 309.71875 C 351.515625 313.75 354.28125 318.003906 359.65625 322.484375 C 360.851562 323.078125 361.453125 323.820312 361.453125 324.71875 C 361.453125 326.207031 360.40625 327.253906 358.3125 327.859375 Z M 358.3125 327.859375 "/></g></g></g></g></g></svg>