<svg xmlns="http://www.w3.org/2000/svg" viewBox="0 0 240 240" width="240" height="240" fill="none">
  <path d="M 210.0 120.0 A 90 90 0 0 1 192.8 172.9" stroke="currentColor" stroke-width="14" stroke-opacity="1" stroke-linecap="round"/>
  <path d="M 192.8 172.9 A 90 90 0 0 1 147.8 205.6" stroke="currentColor" stroke-width="12.5" stroke-opacity="0.95" stroke-linecap="round"/>
  <path d="M 147.8 205.6 A 90 90 0 0 1 92.2 205.6" stroke="currentColor" stroke-width="11" stroke-opacity="0.85" stroke-linecap="round"/>
  <path d="M 92.2 205.6 A 90 90 0 0 1 47.2 172.9" stroke="currentColor" stroke-width="9.5" stroke-opacity="0.75" stroke-linecap="round"/>
  <path d="M 47.2 172.9 A 90 90 0 0 1 30.0 120.0" stroke="currentColor" stroke-width="8" stroke-opacity="0.6" stroke-linecap="round"/>
  <path d="M 30.0 120.0 A 90 90 0 0 1 47.2 67.1" stroke="currentColor" stroke-width="6.5" stroke-opacity="0.45" stroke-linecap="round"/>
  <path d="M 47.2 67.1 A 90 90 0 0 1 92.2 34.4" stroke="currentColor" stroke-width="5" stroke-opacity="0.35" stroke-linecap="round"/>
  <path d="M 92.2 34.4 A 90 90 0 0 1 147.8 34.4" stroke="currentColor" stroke-width="3.5" stroke-opacity="0.25" stroke-linecap="round"/>
  <path d="M 147.8 34.4 A 90 90 0 0 1 192.8 67.1" stroke="currentColor" stroke-width="2" stroke-opacity="0.15" stroke-linecap="round"/>
</svg>
