<svg xmlns="http://www.w3.org/2000/svg" viewBox="0 0 240 240" width="240" height="240" fill="none">
  <path d="M 123.0 120.0 L 123.1 120.4 L 123.1 120.9 L 123.0 121.4 L 122.9 121.9 L 122.7 122.4 L 122.4 122.8 L 122.0 123.3 L 121.6 123.6 L 121.1 124.0 L 120.5 124.2 L 119.9 124.4 L 119.3 124.5 L 118.6 124.5 L 117.9 124.4 L 117.1 124.2 L 116.4 123.9 L 115.8 123.4 L 115.2 122.9 L 114.6 122.3 L 114.1 121.5 L 113.8 120.7 L 113.5 119.8 L 113.4 118.8 L 113.4 117.8 L 113.6 116.7 L 113.9 115.7 L 114.4 114.7 L 115.1 113.7 L 115.9 112.8 L 116.8 112.0 L 118.0 111.3 L 119.2 110.8 L 120.5 110.5 L 122.0 110.3 L 123.5 110.4 L 125.0 110.6 L 126.5 111.2 L 128.0 111.9 L 129.4 112.9 L 130.7 114.1 L 131.8 115.6 L 132.8 117.2 L 133.5 119.1 L 134.0 121.1 L 134.2 123.2 L 134.1 125.4 L 133.6 127.6 L 132.8 129.8 L 131.7 132.0 L 130.2 134.0 L 128.3 135.9 L 126.2 137.5 L 123.7 138.9 L 121.0 139.9 L 118.1 140.5 L 114.9 140.8 L 111.7 140.5 L 108.5 139.8 L 105.2 138.6 L 102.1 136.8 L 99.1 134.6 L 96.4 131.8 L 94.1 128.6 L 92.1 125.0 L 90.7 120.9 L 89.8 116.6 L 89.6 112.0 L 90.0 107.3 L 91.2 102.5 L 93.1 97.7 L 95.7 93.2 L 99.1 88.9 L 103.3 85.0 L 108.1 81.6 L 113.5 78.9 L 119.5 76.9 L 125.9 75.7 L 132.6 75.5 L 139.6 76.3 L 146.6 78.1 L 153.5 81.0 L 160.1 85.1 L 166.3 90.2 L 171.9 96.4 L 176.8 103.5 L 180.6 111.6 L 183.4 120.4 L 184.9 129.9 L 185.1 139.8 L 183.7 150.0 L 180.8 160.2 L 176.3 170.3 L 170.2 180.0 L 162.6 189.0 L 153.3 197.0 L 142.7 203.9 L 130.7 209.4 L 117.7 213.2 L 103.7 215.2 L 89.1 215.1"
        stroke="currentColor" stroke-width="7" stroke-linecap="round"/>
</svg>
