<svg xmlns="http://www.w3.org/2000/svg" viewBox="0 0 240 240" width="240" height="240" fill="none">
  <path d="M 206.6 120.0 A 86.6 85.2 0 0 1 193.8 162.6" stroke="currentColor" stroke-width="16" stroke-opacity="1" stroke-linecap="round"/>
  <path d="M 197.3 164.6 A 89.2 84.6 0 0 1 162.3 193.2" stroke="currentColor" stroke-width="15" stroke-opacity="0.97" stroke-linecap="round"/>
  <path d="M 164.1 196.5 A 88.3 86.9 0 0 1 120.0 206.9" stroke="currentColor" stroke-width="12" stroke-opacity="0.9" stroke-linecap="round"/>
  <path d="M 120.0 204.5 A 84.5 88.1 0 0 1 76.0 196.3" stroke="currentColor" stroke-width="13" stroke-opacity="0.92" stroke-linecap="round"/>
  <path d="M 77.9 193.0 A 84.3 87.5 0 0 1 44.2 163.7" stroke="currentColor" stroke-width="9" stroke-opacity="0.78" stroke-linecap="round"/>
  <path d="M 46.8 162.3 A 84.6 84.7 0 0 1 35.3 120.0" stroke="currentColor" stroke-width="10" stroke-opacity="0.8" stroke-linecap="round"/>
  <path d="M 32.6 120.0 A 87.4 90.6 0 0 1 41.5 74.7" stroke="currentColor" stroke-width="7" stroke-opacity="0.6" stroke-linecap="round"/>
  <path d="M 46.4 77.5 A 85.0 85.8 0 0 1 77.1 45.7" stroke="currentColor" stroke-width="6" stroke-opacity="0.5" stroke-linecap="round"/>
  <path d="M 75.5 42.9 A 89.0 91.6 0 0 1 120.0 28.4" stroke="currentColor" stroke-width="4" stroke-opacity="0.32" stroke-linecap="round"/>
  <path d="M 120.0 31.4 A 88.6 87.2 0 0 1 163.6 44.5" stroke="currentColor" stroke-width="5" stroke-opacity="0.36" stroke-linecap="round"/>
  <path d="M 165.9 40.5 A 91.8 84.4 0 0 1 193.1 77.8" stroke="currentColor" stroke-width="2.5" stroke-opacity="0.18" stroke-linecap="round"/>
</svg>
