<svg xmlns="http://www.w3.org/2000/svg" viewBox="0 0 240 240" width="240" height="240">
  <path d="M 164.1 196.5 A 62 62 0 1 1 165.9 98.0" fill="none" stroke="currentColor" stroke-width="2" stroke-opacity="0.4"/>
  <path d="M 115 55
           C 140 56 155 70 155 90
           C 158 98 163 102 168 108
           C 160 112 156 116 158 114
           C 161 118 163 120 162 122
           C 159 126 157 127 155 128
           C 151 132 150 135 148 138
           C 142 144 138 147 135 150
           C 130 160 128 168 125 175
           C 100 178 70 170 55 150
           C 40 130 42 105 55 88
           C 65 70 85 58 115 55 Z" fill="#8CA17E"/>
  <path d="M 95 50
           C 108 58 112 75 100 92
           C 95 98 85 96 82 88
           C 78 75 84 58 95 50 Z" fill="#E2876B"/>
</svg>
