<svg xmlns="http://www.w3.org/2000/svg" xmlns:xlink="http://www.w3.org/1999/xlink" width="500" zoomAndPan="magnify" viewBox="0 0 375 374.999991" height="500" preserveAspectRatio="xMidYMid meet" version="1.0"><defs><g/><clipPath id="20ab6a7cca"><rect x="0" width="192" y="0" height="248"/></clipPath><clipPath id="b68126e60f"><path d="M 63 63 L 267 63 L 267 302 L 63 302 Z M 63 63 " clip-rule="nonzero"/></clipPath><clipPath id="70d3b16937"><path d="M 182.410156 13.867188 L 351.054688 182.511719 L 182.410156 351.15625 L 13.765625 182.511719 Z M 182.410156 13.867188 " clip-rule="nonzero"/></clipPath><clipPath id="246d347bd8"><path d="M 182.410156 13.867188 L 351.054688 182.511719 L 182.410156 351.15625 L 13.765625 182.511719 Z M 182.410156 13.867188 " clip-rule="nonzero"/></clipPath><clipPath id="a13bec7207"><path d="M 182.410156 13.867188 L 351.054688 182.511719 L 182.410156 351.15625 L 13.765625 182.511719 Z M 182.410156 13.867188 " clip-rule="nonzero"/></clipPath><clipPath id="5d26a130c3"><path d="M 45.632812 45.632812 L 319.382812 45.632812 L 319.382812 319.382812 L 45.632812 319.382812 Z M 45.632812 45.632812 " clip-rule="nonzero"/></clipPath></defs><g transform="matrix(1, 0, 0, 1, 91, 78)"><g clip-path="url(#20ab6a7cca)"><g fill="#000000" fill-opacity="1"><g transform="translate(1.994061, 170.683574)"><g><path d="M 26.53125 -115.15625 L 26.53125 -16.875 C 26.726562 -11.863281 28.4375 -8.023438 31.65625 -5.359375 C 34.882812 -2.703125 39.003906 -1.375 44.015625 -1.375 L 44.015625 0 L 7.671875 0 L 7.671875 -1.375 C 13.085938 -1.375 17.351562 -2.753906 20.46875 -5.515625 C 23.582031 -8.273438 25.140625 -12.0625 25.140625 -16.875 L 25.140625 -115.15625 C 25.140625 -119.25 24.269531 -122.367188 22.53125 -124.515625 C 20.800781 -126.660156 18.757812 -128.164062 16.40625 -129.03125 C 14.050781 -129.90625 12.003906 -130.414062 10.265625 -130.5625 C 8.535156 -130.71875 7.671875 -130.796875 7.671875 -130.796875 L 7.671875 -132.1875 L 53.203125 -132.1875 L 93.234375 -39.875 L 133.25 -132.1875 L 182.015625 -132.1875 L 182.015625 -130.65625 C 182.015625 -130.65625 181.144531 -130.601562 179.40625 -130.5 C 177.675781 -130.394531 175.660156 -129.878906 173.359375 -128.953125 C 171.054688 -128.035156 169.035156 -126.476562 167.296875 -124.28125 C 165.554688 -122.082031 164.6875 -118.835938 164.6875 -114.546875 L 164.6875 -16.875 C 164.894531 -11.863281 166.609375 -8.023438 169.828125 -5.359375 C 173.046875 -2.703125 177.160156 -1.375 182.171875 -1.375 L 182.171875 0 L 115.921875 0 L 115.921875 -1.375 C 121.347656 -1.375 125.617188 -2.753906 128.734375 -5.515625 C 131.847656 -8.273438 133.40625 -12.0625 133.40625 -16.875 L 133.40625 -129.109375 L 76.984375 1.234375 Z M 26.53125 -115.15625 "/></g></g></g></g></g><g clip-path="url(#b68126e60f)"><g clip-path="url(#70d3b16937)"><g clip-path="url(#246d347bd8)"><g clip-path="url(#a13bec7207)"><path fill="#000000" d="M 98.089844 266.832031 C 51.578125 220.324219 51.578125 144.699219 98.089844 98.1875 C 144.597656 51.679688 220.222656 51.679688 266.734375 98.1875 L 265.832031 99.089844 C 219.816406 53.074219 145.003906 53.074219 98.988281 99.089844 C 52.976562 145.105469 52.976562 219.917969 98.988281 265.933594 C 145.003906 311.945312 219.816406 311.945312 265.832031 265.933594 L 266.734375 266.832031 C 220.222656 313.34375 144.597656 313.34375 98.089844 266.832031 Z M 98.089844 266.832031 " fill-opacity="1" fill-rule="nonzero"/></g></g></g></g><g clip-path="url(#5d26a130c3)"><path fill="#000000" d="M 182.507812 319.382812 C 106.890625 319.382812 45.632812 257.707031 45.632812 182.507812 C 45.632812 107.3125 106.890625 45.632812 182.507812 45.632812 C 258.128906 45.632812 319.382812 106.890625 319.382812 182.507812 C 319.382812 258.128906 257.707031 319.382812 182.507812 319.382812 Z M 182.507812 54.082031 C 111.535156 54.082031 54.082031 111.535156 54.082031 182.507812 C 54.082031 253.480469 111.535156 310.933594 182.507812 310.933594 C 253.480469 310.933594 310.933594 253.480469 310.933594 182.507812 C 310.933594 111.535156 253.058594 54.082031 182.507812 54.082031 Z M 182.507812 54.082031 " fill-opacity="1" fill-rule="nonzero"/></g></svg>